<svg xmlns="http://www.w3.org/2000/svg" viewBox="0 0 24 24" class="w-5 h-5" fill="none" stroke="currentColor">
            <path d="M4.41 16.75C4.17 19.64 6.35 22 9.25 22H14.04C17.3 22 19.54 19.37 19 16.15C18.43 12.77 15.17 10 11.74 10C8.02 10 4.72 13.04 4.41 16.75Z" stroke-width="1.5" stroke-linecap="round" stroke-linejoin="round"/>
            <path d="M10.47 7.5C11.85 7.5 12.97 6.38 12.97 5C12.97 3.62 11.85 2.5 10.47 2.5C9.09 2.5 7.97 3.62 7.97 5C7.97 6.38 9.09 7.5 10.47 7.5Z" stroke-width="1.5" stroke-linecap="round" stroke-linejoin="round"/>
            <path d="M17.3 8.7C18.4 8.7 19.3 7.8 19.3 6.7C19.3 5.6 18.4 4.7 17.3 4.7C16.2 4.7 15.3 5.6 15.3 6.7C15.3 7.8 16.2 8.7 17.3 8.7Z" stroke-width="1.5" stroke-linecap="round" stroke-linejoin="round"/>
            <path d="M21 12.7C21.83 12.7 22.5 12.03 22.5 11.2C22.5 10.37 21.83 9.7 21 9.7C20.17 9.7 19.5 10.37 19.5 11.2C19.5 12.03 20.17 12.7 21 12.7Z" stroke-width="1.5" stroke-linecap="round" stroke-linejoin="round"/>
            <path d="M3.97 10.7C5.07 10.7 5.97 9.8 5.97 8.7C5.97 7.6 5.07 6.7 3.97 6.7C2.87 6.7 1.97 7.6 1.97 8.7C1.97 9.8 2.87 10.7 3.97 10.7Z" stroke-width="1.5" stroke-linecap="round" stroke-linejoin="round"/>
        </svg>